<svg xmlns="http://www.w3.org/2000/svg" xmlns:xlink="http://www.w3.org/1999/xlink" width="500" zoomAndPan="magnify" viewBox="0 0 375 374.999991" height="500" preserveAspectRatio="xMidYMid meet" version="1.0"><defs><clipPath id="1207684045"><path d="M 114.496094 118 L 227 118 L 227 262 L 114.496094 262 Z M 114.496094 118 " clip-rule="nonzero"/></clipPath></defs><g clip-path="url(#1207684045)"><path fill="#fba931" d="M 226.597656 191.710938 C 226.183594 192.660156 225.765625 193.605469 225.347656 194.546875 C 223.898438 194.683594 222.242188 194.859375 220.675781 195.078125 C 216.5625 195.652344 211.394531 197.308594 201.113281 202.101562 C 190.835938 206.902344 182.097656 218.039062 175.160156 228.144531 C 168.21875 238.253906 161.367188 260.785156 155.796875 261.640625 C 150.230469 262.5 145.691406 253.589844 143.546875 249.992188 C 141.40625 246.394531 136.09375 235.171875 133.695312 229.515625 C 131.296875 223.863281 124.214844 203.703125 120.445312 190.453125 C 116.675781 177.203125 115.191406 164.410156 114.851562 147.851562 C 114.507812 131.285156 123.644531 122.148438 131.410156 119.066406 C 131.515625 119.027344 131.617188 118.988281 131.726562 118.949219 C 135.746094 117.546875 142.765625 118.621094 150.988281 121.800781 C 159.085938 124.9375 168.359375 130.117188 177.074219 136.996094 C 177.074219 136.996094 162.050781 130.144531 151.601562 130.402344 C 141.148438 130.660156 133.867188 136.484375 130.097656 144.023438 C 126.328125 151.5625 125.472656 167.152344 126.84375 179.832031 C 128.214844 192.507812 133.695312 212.039062 137.125 222.664062 C 140.550781 233.285156 146.632812 242.964844 150.488281 245.535156 C 154.339844 248.105469 156.65625 244.25 161.679688 233.398438 C 166.703125 222.550781 179.839844 210.214844 186.464844 204.84375 C 192.597656 199.878906 211.976562 192.902344 226.597656 191.710938 " fill-opacity="1" fill-rule="nonzero"/></g><path fill="#fba931" d="M 130.953125 116.894531 C 136.550781 114.496094 150.027344 115.640625 162.9375 122.949219 C 175.84375 130.257812 186.464844 136.539062 199.257812 133 C 212.050781 129.460938 227.128906 124.660156 236.378906 129.6875 C 245.632812 134.714844 245.515625 148.191406 241.863281 161.898438 C 238.207031 175.605469 223.359375 210.328125 215.820312 221.179688 C 208.28125 232.03125 205.882812 236.484375 205.882812 236.484375 C 255.339844 185.769531 260.480469 144.878906 258.59375 136.996094 C 256.710938 129.117188 254.539062 126.035156 250.65625 123.519531 C 246.773438 121.007812 236.835938 115.980469 223.128906 119.867188 C 209.425781 123.75 204.167969 126.488281 200.515625 127.746094 C 196.859375 129 187.550781 129.804688 182.523438 128.429688 C 177.5 127.058594 160.878906 116.667969 151.855469 114.953125 C 138.40625 112.5 130.953125 116.894531 130.953125 116.894531 " fill-opacity="1" fill-rule="nonzero"/></svg>