<svg xmlns="http://www.w3.org/2000/svg" xmlns:xlink="http://www.w3.org/1999/xlink" width="500" zoomAndPan="magnify" viewBox="0 0 375 374.999991" height="500" preserveAspectRatio="xMidYMid meet" version="1.0"><defs><g/><clipPath id="042f7ad52a"><path d="M 114.496094 52 L 227 52 L 227 196.847656 L 114.496094 196.847656 Z M 114.496094 52 " clip-rule="nonzero"/></clipPath><clipPath id="8cc4163a51"><path d="M 273.9375 236.539062 L 355.300781 236.539062 L 355.300781 268.855469 L 273.9375 268.855469 Z M 273.9375 236.539062 " clip-rule="nonzero"/></clipPath><clipPath id="d4c1f44276"><path d="M 290.09375 236.539062 L 339.144531 236.539062 C 348.066406 236.539062 355.300781 243.773438 355.300781 252.699219 C 355.300781 261.621094 348.066406 268.855469 339.144531 268.855469 L 290.09375 268.855469 C 281.171875 268.855469 273.9375 261.621094 273.9375 252.699219 C 273.9375 243.773438 281.171875 236.539062 290.09375 236.539062 Z M 290.09375 236.539062 " clip-rule="nonzero"/></clipPath></defs><g clip-path="url(#042f7ad52a)"><path fill="#f8a731" d="M 226.597656 126.058594 C 226.183594 127.007812 225.765625 127.953125 225.347656 128.894531 C 223.898438 129.035156 222.242188 129.207031 220.675781 129.425781 C 216.5625 130 211.394531 131.65625 201.113281 136.449219 C 190.835938 141.25 182.097656 152.386719 175.160156 162.496094 C 168.21875 172.601562 161.367188 195.132812 155.796875 195.988281 C 150.230469 196.847656 145.691406 187.9375 143.546875 184.339844 C 141.40625 180.742188 136.09375 169.519531 133.695312 163.867188 C 131.296875 158.210938 124.214844 138.050781 120.445312 124.800781 C 116.675781 111.550781 115.191406 98.757812 114.851562 82.199219 C 114.507812 65.632812 123.644531 56.496094 131.410156 53.414062 C 131.515625 53.375 131.617188 53.335938 131.726562 53.296875 C 135.746094 51.894531 142.765625 52.96875 150.988281 56.148438 C 159.085938 59.285156 168.359375 64.464844 177.074219 71.347656 C 177.074219 71.347656 162.050781 64.492188 151.601562 64.75 C 141.148438 65.007812 133.867188 70.832031 130.097656 78.371094 C 126.328125 85.910156 125.472656 101.5 126.84375 114.179688 C 128.214844 126.855469 133.695312 146.386719 137.125 157.011719 C 140.550781 167.632812 146.632812 177.3125 150.488281 179.882812 C 154.339844 182.453125 156.65625 178.597656 161.679688 167.746094 C 166.703125 156.898438 179.839844 144.5625 186.464844 139.191406 C 192.597656 134.226562 211.976562 127.25 226.597656 126.058594 " fill-opacity="1" fill-rule="nonzero"/></g><path fill="#f8a731" d="M 130.953125 51.242188 C 136.550781 48.84375 150.027344 49.988281 162.9375 57.296875 C 175.84375 64.605469 186.464844 70.890625 199.257812 67.347656 C 212.050781 63.808594 227.128906 59.007812 236.378906 64.035156 C 245.632812 69.0625 245.515625 82.539062 241.863281 96.246094 C 238.207031 109.953125 223.359375 144.675781 215.820312 155.527344 C 208.28125 166.378906 205.882812 170.832031 205.882812 170.832031 C 255.339844 120.117188 260.480469 79.226562 258.59375 71.347656 C 256.710938 63.464844 254.539062 60.382812 250.65625 57.867188 C 246.773438 55.355469 236.835938 50.332031 223.128906 54.214844 C 209.425781 58.097656 204.167969 60.835938 200.515625 62.09375 C 196.859375 63.351562 187.550781 64.152344 182.523438 62.777344 C 177.5 61.40625 160.878906 51.015625 151.855469 49.300781 C 138.40625 46.847656 130.953125 51.242188 130.953125 51.242188 " fill-opacity="1" fill-rule="nonzero"/><g fill="#ffffff" fill-opacity="1"><g transform="translate(34.784405, 240.897817)"><g><path d="M 14.859375 0.328125 C 12.441406 0.328125 10.273438 -0.0625 8.359375 -0.84375 C 6.453125 -1.625 4.925781 -2.78125 3.78125 -4.3125 C 2.632812 -5.851562 2.03125 -7.707031 1.96875 -9.875 L 10.53125 -9.875 C 10.65625 -8.644531 11.078125 -7.707031 11.796875 -7.0625 C 12.515625 -6.425781 13.453125 -6.109375 14.609375 -6.109375 C 15.804688 -6.109375 16.75 -6.378906 17.4375 -6.921875 C 18.125 -7.472656 18.46875 -8.238281 18.46875 -9.21875 C 18.46875 -10.03125 18.191406 -10.703125 17.640625 -11.234375 C 17.097656 -11.765625 16.425781 -12.203125 15.625 -12.546875 C 14.820312 -12.890625 13.6875 -13.28125 12.21875 -13.71875 C 10.09375 -14.382812 8.351562 -15.046875 7 -15.703125 C 5.65625 -16.359375 4.492188 -17.328125 3.515625 -18.609375 C 2.546875 -19.890625 2.0625 -21.566406 2.0625 -23.640625 C 2.0625 -26.710938 3.171875 -29.117188 5.390625 -30.859375 C 7.617188 -32.597656 10.519531 -33.46875 14.09375 -33.46875 C 17.726562 -33.46875 20.65625 -32.597656 22.875 -30.859375 C 25.101562 -29.117188 26.300781 -26.695312 26.46875 -23.59375 L 17.765625 -23.59375 C 17.703125 -24.65625 17.3125 -25.492188 16.59375 -26.109375 C 15.875 -26.722656 14.945312 -27.03125 13.8125 -27.03125 C 12.84375 -27.03125 12.0625 -26.769531 11.46875 -26.25 C 10.875 -25.726562 10.578125 -24.984375 10.578125 -24.015625 C 10.578125 -22.953125 11.078125 -22.125 12.078125 -21.53125 C 13.078125 -20.9375 14.644531 -20.289062 16.78125 -19.59375 C 18.90625 -18.875 20.632812 -18.1875 21.96875 -17.53125 C 23.300781 -16.875 24.453125 -15.914062 25.421875 -14.65625 C 26.398438 -13.40625 26.890625 -11.796875 26.890625 -9.828125 C 26.890625 -7.941406 26.410156 -6.226562 25.453125 -4.6875 C 24.492188 -3.15625 23.101562 -1.9375 21.28125 -1.03125 C 19.46875 -0.125 17.328125 0.328125 14.859375 0.328125 Z M 14.859375 0.328125 "/></g></g></g><g fill="#ffffff" fill-opacity="1"><g transform="translate(63.684557, 240.897817)"><g><path d="M 36.375 -26.515625 C 39.632812 -26.515625 42.226562 -25.523438 44.15625 -23.546875 C 46.082031 -21.578125 47.046875 -18.835938 47.046875 -15.328125 L 47.046875 0 L 39.0625 0 L 39.0625 -14.234375 C 39.0625 -15.929688 38.613281 -17.238281 37.71875 -18.15625 C 36.820312 -19.082031 35.59375 -19.546875 34.03125 -19.546875 C 32.457031 -19.546875 31.222656 -19.082031 30.328125 -18.15625 C 29.441406 -17.238281 29 -15.929688 29 -14.234375 L 29 0 L 21.015625 0 L 21.015625 -14.234375 C 21.015625 -15.929688 20.566406 -17.238281 19.671875 -18.15625 C 18.773438 -19.082031 17.546875 -19.546875 15.984375 -19.546875 C 14.410156 -19.546875 13.175781 -19.082031 12.28125 -18.15625 C 11.394531 -17.238281 10.953125 -15.929688 10.953125 -14.234375 L 10.953125 0 L 2.90625 0 L 2.90625 -26.21875 L 10.953125 -26.21875 L 10.953125 -22.9375 C 11.765625 -24.03125 12.828125 -24.898438 14.140625 -25.546875 C 15.460938 -26.191406 16.953125 -26.515625 18.609375 -26.515625 C 20.585938 -26.515625 22.347656 -26.085938 23.890625 -25.234375 C 25.441406 -24.390625 26.660156 -23.1875 27.546875 -21.625 C 28.453125 -23.0625 29.6875 -24.234375 31.25 -25.140625 C 32.820312 -26.054688 34.53125 -26.515625 36.375 -26.515625 Z M 36.375 -26.515625 "/></g></g></g><g fill="#ffffff" fill-opacity="1"><g transform="translate(113.44921, 240.897817)"><g><path d="M 6.953125 -28.953125 C 5.546875 -28.953125 4.394531 -29.363281 3.5 -30.1875 C 2.601562 -31.019531 2.15625 -32.050781 2.15625 -33.28125 C 2.15625 -34.53125 2.601562 -35.566406 3.5 -36.390625 C 4.394531 -37.222656 5.546875 -37.640625 6.953125 -37.640625 C 8.335938 -37.640625 9.472656 -37.222656 10.359375 -36.390625 C 11.253906 -35.566406 11.703125 -34.53125 11.703125 -33.28125 C 11.703125 -32.050781 11.253906 -31.019531 10.359375 -30.1875 C 9.472656 -29.363281 8.335938 -28.953125 6.953125 -28.953125 Z M 10.953125 -26.21875 L 10.953125 0 L 2.90625 0 L 2.90625 -26.21875 Z M 10.953125 -26.21875 "/></g></g></g><g fill="#ffffff" fill-opacity="1"><g transform="translate(127.311884, 240.897817)"><g><path d="M 10.953125 -34.78125 L 10.953125 0 L 2.90625 0 L 2.90625 -34.78125 Z M 10.953125 -34.78125 "/></g></g></g><g fill="#ffffff" fill-opacity="1"><g transform="translate(141.174557, 240.897817)"><g><path d="M 27.640625 -13.53125 C 27.640625 -12.78125 27.59375 -12 27.5 -11.1875 L 9.3125 -11.1875 C 9.4375 -9.550781 9.957031 -8.300781 10.875 -7.4375 C 11.800781 -6.582031 12.9375 -6.15625 14.28125 -6.15625 C 16.289062 -6.15625 17.6875 -7 18.46875 -8.6875 L 27.03125 -8.6875 C 26.582031 -6.96875 25.785156 -5.414062 24.640625 -4.03125 C 23.503906 -2.65625 22.070312 -1.578125 20.34375 -0.796875 C 18.625 -0.015625 16.695312 0.375 14.5625 0.375 C 12 0.375 9.710938 -0.171875 7.703125 -1.265625 C 5.703125 -2.359375 4.132812 -3.925781 3 -5.96875 C 1.875 -8.007812 1.3125 -10.390625 1.3125 -13.109375 C 1.3125 -15.835938 1.867188 -18.21875 2.984375 -20.25 C 4.097656 -22.289062 5.65625 -23.859375 7.65625 -24.953125 C 9.664062 -26.054688 11.96875 -26.609375 14.5625 -26.609375 C 17.101562 -26.609375 19.359375 -26.070312 21.328125 -25 C 23.304688 -23.9375 24.851562 -22.414062 25.96875 -20.4375 C 27.082031 -18.46875 27.640625 -16.164062 27.640625 -13.53125 Z M 19.40625 -15.65625 C 19.40625 -17.03125 18.9375 -18.125 18 -18.9375 C 17.0625 -19.75 15.882812 -20.15625 14.46875 -20.15625 C 13.125 -20.15625 11.988281 -19.765625 11.0625 -18.984375 C 10.144531 -18.203125 9.578125 -17.09375 9.359375 -15.65625 Z M 19.40625 -15.65625 "/></g></g></g><g fill="#ffffff" fill-opacity="1"><g transform="translate(170.121698, 240.897817)"><g/></g></g><g fill="#f8a731" fill-opacity="1"><g transform="translate(180.08518, 240.897817)"><g><path d="M 24.8125 -22.5625 C 24.21875 -23.65625 23.363281 -24.488281 22.25 -25.0625 C 21.144531 -25.644531 19.835938 -25.9375 18.328125 -25.9375 C 15.722656 -25.9375 13.640625 -25.082031 12.078125 -23.375 C 10.515625 -21.675781 9.734375 -19.398438 9.734375 -16.546875 C 9.734375 -13.503906 10.550781 -11.128906 12.1875 -9.421875 C 13.832031 -7.710938 16.097656 -6.859375 18.984375 -6.859375 C 20.960938 -6.859375 22.628906 -7.359375 23.984375 -8.359375 C 25.347656 -9.367188 26.347656 -10.8125 26.984375 -12.6875 L 16.78125 -12.6875 L 16.78125 -18.609375 L 34.265625 -18.609375 L 34.265625 -11.140625 C 33.671875 -9.128906 32.660156 -7.265625 31.234375 -5.546875 C 29.804688 -3.828125 27.992188 -2.429688 25.796875 -1.359375 C 23.609375 -0.296875 21.132812 0.234375 18.375 0.234375 C 15.113281 0.234375 12.207031 -0.476562 9.65625 -1.90625 C 7.101562 -3.332031 5.113281 -5.3125 3.6875 -7.84375 C 2.257812 -10.382812 1.546875 -13.285156 1.546875 -16.546875 C 1.546875 -19.804688 2.257812 -22.710938 3.6875 -25.265625 C 5.113281 -27.816406 7.09375 -29.804688 9.625 -31.234375 C 12.164062 -32.660156 15.066406 -33.375 18.328125 -33.375 C 22.273438 -33.375 25.601562 -32.414062 28.3125 -30.5 C 31.03125 -28.59375 32.828125 -25.945312 33.703125 -22.5625 Z M 24.8125 -22.5625 "/></g></g></g><g fill="#f8a731" fill-opacity="1"><g transform="translate(215.89318, 240.897817)"><g><path d="M 27.640625 -13.53125 C 27.640625 -12.78125 27.59375 -12 27.5 -11.1875 L 9.3125 -11.1875 C 9.4375 -9.550781 9.957031 -8.300781 10.875 -7.4375 C 11.800781 -6.582031 12.9375 -6.15625 14.28125 -6.15625 C 16.289062 -6.15625 17.6875 -7 18.46875 -8.6875 L 27.03125 -8.6875 C 26.582031 -6.96875 25.785156 -5.414062 24.640625 -4.03125 C 23.503906 -2.65625 22.070312 -1.578125 20.34375 -0.796875 C 18.625 -0.015625 16.695312 0.375 14.5625 0.375 C 12 0.375 9.710938 -0.171875 7.703125 -1.265625 C 5.703125 -2.359375 4.132812 -3.925781 3 -5.96875 C 1.875 -8.007812 1.3125 -10.390625 1.3125 -13.109375 C 1.3125 -15.835938 1.867188 -18.21875 2.984375 -20.25 C 4.097656 -22.289062 5.65625 -23.859375 7.65625 -24.953125 C 9.664062 -26.054688 11.96875 -26.609375 14.5625 -26.609375 C 17.101562 -26.609375 19.359375 -26.070312 21.328125 -25 C 23.304688 -23.9375 24.851562 -22.414062 25.96875 -20.4375 C 27.082031 -18.46875 27.640625 -16.164062 27.640625 -13.53125 Z M 19.40625 -15.65625 C 19.40625 -17.03125 18.9375 -18.125 18 -18.9375 C 17.0625 -19.75 15.882812 -20.15625 14.46875 -20.15625 C 13.125 -20.15625 11.988281 -19.765625 11.0625 -18.984375 C 10.144531 -18.203125 9.578125 -17.09375 9.359375 -15.65625 Z M 19.40625 -15.65625 "/></g></g></g><g fill="#f8a731" fill-opacity="1"><g transform="translate(244.840321, 240.897817)"><g><path d="M 13.578125 0.375 C 11.296875 0.375 9.257812 -0.015625 7.46875 -0.796875 C 5.6875 -1.578125 4.273438 -2.648438 3.234375 -4.015625 C 2.203125 -5.378906 1.625 -6.90625 1.5 -8.59375 L 9.453125 -8.59375 C 9.546875 -7.6875 9.96875 -6.953125 10.71875 -6.390625 C 11.46875 -5.828125 12.390625 -5.546875 13.484375 -5.546875 C 14.492188 -5.546875 15.269531 -5.738281 15.8125 -6.125 C 16.363281 -6.519531 16.640625 -7.03125 16.640625 -7.65625 C 16.640625 -8.40625 16.242188 -8.960938 15.453125 -9.328125 C 14.671875 -9.691406 13.40625 -10.09375 11.65625 -10.53125 C 9.78125 -10.96875 8.210938 -11.425781 6.953125 -11.90625 C 5.703125 -12.394531 4.617188 -13.164062 3.703125 -14.21875 C 2.796875 -15.269531 2.34375 -16.6875 2.34375 -18.46875 C 2.34375 -19.976562 2.757812 -21.347656 3.59375 -22.578125 C 4.425781 -23.816406 5.648438 -24.796875 7.265625 -25.515625 C 8.878906 -26.242188 10.796875 -26.609375 13.015625 -26.609375 C 16.304688 -26.609375 18.898438 -25.789062 20.796875 -24.15625 C 22.691406 -22.53125 23.78125 -20.367188 24.0625 -17.671875 L 16.640625 -17.671875 C 16.515625 -18.578125 16.113281 -19.296875 15.4375 -19.828125 C 14.757812 -20.367188 13.875 -20.640625 12.78125 -20.640625 C 11.84375 -20.640625 11.125 -20.457031 10.625 -20.09375 C 10.125 -19.726562 9.875 -19.234375 9.875 -18.609375 C 9.875 -17.859375 10.269531 -17.296875 11.0625 -16.921875 C 11.863281 -16.546875 13.113281 -16.171875 14.8125 -15.796875 C 16.75 -15.296875 18.328125 -14.800781 19.546875 -14.3125 C 20.773438 -13.820312 21.847656 -13.035156 22.765625 -11.953125 C 23.691406 -10.878906 24.171875 -9.429688 24.203125 -7.609375 C 24.203125 -6.078125 23.769531 -4.707031 22.90625 -3.5 C 22.050781 -2.289062 20.816406 -1.34375 19.203125 -0.65625 C 17.585938 0.03125 15.710938 0.375 13.578125 0.375 Z M 13.578125 0.375 "/></g></g></g><g fill="#f8a731" fill-opacity="1"><g transform="translate(271.061927, 240.897817)"><g><path d="M 17.53125 -6.8125 L 17.53125 0 L 13.4375 0 C 10.53125 0 8.257812 -0.710938 6.625 -2.140625 C 5 -3.566406 4.1875 -5.894531 4.1875 -9.125 L 4.1875 -19.546875 L 0.984375 -19.546875 L 0.984375 -26.21875 L 4.1875 -26.21875 L 4.1875 -32.625 L 12.21875 -32.625 L 12.21875 -26.21875 L 17.484375 -26.21875 L 17.484375 -19.546875 L 12.21875 -19.546875 L 12.21875 -9.03125 C 12.21875 -8.238281 12.40625 -7.671875 12.78125 -7.328125 C 13.15625 -6.984375 13.78125 -6.8125 14.65625 -6.8125 Z M 17.53125 -6.8125 "/></g></g></g><g fill="#f8a731" fill-opacity="1"><g transform="translate(290.140726, 240.897817)"><g><path d="M 14.859375 0.375 C 12.285156 0.375 9.972656 -0.171875 7.921875 -1.265625 C 5.867188 -2.359375 4.253906 -3.925781 3.078125 -5.96875 C 1.898438 -8.007812 1.3125 -10.390625 1.3125 -13.109375 C 1.3125 -15.804688 1.90625 -18.179688 3.09375 -20.234375 C 4.289062 -22.285156 5.921875 -23.859375 7.984375 -24.953125 C 10.054688 -26.054688 12.378906 -26.609375 14.953125 -26.609375 C 17.515625 -26.609375 19.828125 -26.054688 21.890625 -24.953125 C 23.960938 -23.859375 25.59375 -22.285156 26.78125 -20.234375 C 27.976562 -18.179688 28.578125 -15.804688 28.578125 -13.109375 C 28.578125 -10.421875 27.972656 -8.046875 26.765625 -5.984375 C 25.554688 -3.929688 23.910156 -2.359375 21.828125 -1.265625 C 19.742188 -0.171875 17.421875 0.375 14.859375 0.375 Z M 14.859375 -6.578125 C 16.390625 -6.578125 17.691406 -7.140625 18.765625 -8.265625 C 19.847656 -9.398438 20.390625 -11.015625 20.390625 -13.109375 C 20.390625 -15.210938 19.863281 -16.828125 18.8125 -17.953125 C 17.769531 -19.078125 16.484375 -19.640625 14.953125 -19.640625 C 13.378906 -19.640625 12.078125 -19.082031 11.046875 -17.96875 C 10.015625 -16.863281 9.5 -15.242188 9.5 -13.109375 C 9.5 -11.015625 10.003906 -9.398438 11.015625 -8.265625 C 12.035156 -7.140625 13.316406 -6.578125 14.859375 -6.578125 Z M 14.859375 -6.578125 "/></g></g></g><g fill="#f8a731" fill-opacity="1"><g transform="translate(320.074703, 240.897817)"><g><path d="M 10.953125 -21.859375 C 11.890625 -23.296875 13.0625 -24.429688 14.46875 -25.265625 C 15.882812 -26.097656 17.453125 -26.515625 19.171875 -26.515625 L 19.171875 -18 L 16.96875 -18 C 14.957031 -18 13.453125 -17.566406 12.453125 -16.703125 C 11.453125 -15.847656 10.953125 -14.335938 10.953125 -12.171875 L 10.953125 0 L 2.90625 0 L 2.90625 -26.21875 L 10.953125 -26.21875 Z M 10.953125 -21.859375 "/></g></g></g><g clip-path="url(#8cc4163a51)"><g clip-path="url(#d4c1f44276)"><path fill="#ffffff" d="M 273.9375 236.539062 L 355.300781 236.539062 L 355.300781 268.855469 L 273.9375 268.855469 Z M 273.9375 236.539062 " fill-opacity="1" fill-rule="nonzero"/></g></g><g fill="#000000" fill-opacity="1"><g transform="translate(293.23235, 259.447819)"><g><path d="M 12.390625 -9.875 C 12.390625 -9.03125 12.191406 -8.257812 11.796875 -7.5625 C 11.410156 -6.863281 10.816406 -6.300781 10.015625 -5.875 C 9.210938 -5.445312 8.21875 -5.234375 7.03125 -5.234375 L 4.828125 -5.234375 L 4.828125 0 L 1.28125 0 L 1.28125 -14.5625 L 7.03125 -14.5625 C 8.195312 -14.5625 9.179688 -14.359375 9.984375 -13.953125 C 10.785156 -13.554688 11.382812 -13.003906 11.78125 -12.296875 C 12.1875 -11.597656 12.390625 -10.789062 12.390625 -9.875 Z M 6.765625 -8.046875 C 7.441406 -8.046875 7.945312 -8.203125 8.28125 -8.515625 C 8.613281 -8.835938 8.78125 -9.289062 8.78125 -9.875 C 8.78125 -10.457031 8.613281 -10.90625 8.28125 -11.21875 C 7.945312 -11.539062 7.441406 -11.703125 6.765625 -11.703125 L 4.828125 -11.703125 L 4.828125 -8.046875 Z M 6.765625 -8.046875 "/></g></g></g><g fill="#000000" fill-opacity="1"><g transform="translate(306.175502, 259.447819)"><g><path d="M 8.71875 0 L 5.6875 -5.5 L 4.828125 -5.5 L 4.828125 0 L 1.28125 0 L 1.28125 -14.5625 L 7.234375 -14.5625 C 8.390625 -14.5625 9.367188 -14.359375 10.171875 -13.953125 C 10.984375 -13.554688 11.585938 -13.007812 11.984375 -12.3125 C 12.390625 -11.613281 12.59375 -10.835938 12.59375 -9.984375 C 12.59375 -9.015625 12.316406 -8.148438 11.765625 -7.390625 C 11.222656 -6.628906 10.421875 -6.085938 9.359375 -5.765625 L 12.71875 0 Z M 4.828125 -8.015625 L 7.03125 -8.015625 C 7.6875 -8.015625 8.175781 -8.171875 8.5 -8.484375 C 8.820312 -8.804688 8.984375 -9.253906 8.984375 -9.828125 C 8.984375 -10.390625 8.820312 -10.828125 8.5 -11.140625 C 8.175781 -11.460938 7.6875 -11.625 7.03125 -11.625 L 4.828125 -11.625 Z M 4.828125 -8.015625 "/></g></g></g><g fill="#000000" fill-opacity="1"><g transform="translate(319.699442, 259.447819)"><g><path d="M 8.171875 0.140625 C 6.804688 0.140625 5.550781 -0.175781 4.40625 -0.8125 C 3.269531 -1.445312 2.363281 -2.332031 1.6875 -3.46875 C 1.019531 -4.613281 0.6875 -5.898438 0.6875 -7.328125 C 0.6875 -8.753906 1.019531 -10.03125 1.6875 -11.15625 C 2.363281 -12.289062 3.269531 -13.175781 4.40625 -13.8125 C 5.550781 -14.457031 6.804688 -14.78125 8.171875 -14.78125 C 9.546875 -14.78125 10.800781 -14.457031 11.9375 -13.8125 C 13.082031 -13.175781 13.984375 -12.289062 14.640625 -11.15625 C 15.296875 -10.03125 15.625 -8.753906 15.625 -7.328125 C 15.625 -5.898438 15.289062 -4.613281 14.625 -3.46875 C 13.957031 -2.332031 13.054688 -1.445312 11.921875 -0.8125 C 10.796875 -0.175781 9.546875 0.140625 8.171875 0.140625 Z M 8.171875 -3.09375 C 9.335938 -3.09375 10.269531 -3.476562 10.96875 -4.25 C 11.664062 -5.03125 12.015625 -6.054688 12.015625 -7.328125 C 12.015625 -8.609375 11.664062 -9.632812 10.96875 -10.40625 C 10.269531 -11.175781 9.335938 -11.5625 8.171875 -11.5625 C 6.992188 -11.5625 6.054688 -11.179688 5.359375 -10.421875 C 4.660156 -9.660156 4.3125 -8.628906 4.3125 -7.328125 C 4.3125 -6.035156 4.660156 -5.003906 5.359375 -4.234375 C 6.054688 -3.472656 6.992188 -3.09375 8.171875 -3.09375 Z M 8.171875 -3.09375 "/></g></g></g></svg>